<svg xmlns="http://www.w3.org/2000/svg" aria-hidden="true" style="position:absolute;width:0;height:0;overflow:hidden">
  <defs>
    <symbol id="icon-strategy" viewBox="0 0 23 32">
      <path d="M22 31.5c0-.276-.224-.5-.5-.5h-18c-.276 0-.5.224-.5.5s.224.5.5.5h18c.276 0 .5-.224.5-.5zM1.274 9.354C.856 9.632.222 10.478.823 11.68c.499.997 1.54 2.217 2.647 2.539.564.166 1.12.097 1.605-.196 1.099-.658 2.397-1.548 2.947-1.93.694.351 1.57.424 2.46.195.004-.001.008-.003.012-.004-.052 1.651-.611 2.682-3.344 5.22-2.436 2.261-3.881 5.231-3.867 7.946.01 1.781.659 3.31 1.88 4.419.093.085.213.131.337.131h14c.276 0 .5-.224.5-.5s-.224-.5-.5-.5H5.699c-.919-.905-1.407-2.13-1.415-3.555-.013-2.402 1.347-5.165 3.547-7.208C10.746 15.531 11.5 14.249 11.5 12c0-.041-.014-.077-.023-.115.547-.295 1.02-.685 1.343-1.157.405-.59 1.277-2.105.63-3.446-.12-.247-.419-.352-.668-.232s-.353.419-.232.668c.291.603.084 1.517-.554 2.445-.368.536-1.026.969-1.761 1.157-.747.191-1.457.107-1.952-.232-.173-.118-.4-.117-.571.004-.018.012-1.777 1.251-3.149 2.074-.251.15-.516.182-.812.094-.774-.226-1.625-1.212-2.032-2.026-.329-.658.008-.972.161-1.084 3.447-2.977 5.177-6.07 5.248-6.201.066-.122.08-.266.036-.399-.005-.015-.35-1.063-.54-2.033 1.046.63 2.845 1.51 4.718 1.51 2.604 0 8.658.972 8.658 9.976 0 .049-.009 4.944-1.97 10.327-.095.259.039.546.299.641.057.019.114.029.171.029.204 0 .396-.126.47-.329C20.991 18.123 21.001 13.205 21 13c0-10.183-7.393-10.974-9.658-10.974C8.833 2.026 6.33.123 6.306.103c-.153-.115-.355-.134-.527-.051S5.5.31 5.5.5c0 .981.465 2.568.646 3.147-.418.698-2.066 3.281-4.872 5.707zM17.485 1.54C15.884.461 14.094 0 11.5 0c-.276 0-.5.224-.5.5s.224.5.5.5c2.38 0 4.003.409 5.427 1.369C19.241 3.931 22 7.043 22 13c0 1.451 0 3.438-.985 7.379-.066.268.096.539.364.606.041.01.081.015.121.015.225 0 .429-.151.485-.379C23 16.562 23 14.503 23 13c0-6.396-2.999-9.763-5.515-11.46z"/>
    </symbol>
    <symbol id="icon-stopwatch" viewBox="0 0 32 32">
      <path d="M16 6.038V4h4V2c0-1.105-.895-2-2-2h-6c-1.105 0-2 .895-2 2v2h4v2.038C7.288 6.549 2 12.157 2 19c0 7.18 5.82 13 13 13s13-5.82 13-13c0-6.843-5.288-12.451-12-12.962zm6.071 20.033C20.182 27.96 17.671 29 15 29s-5.182-1.04-7.071-2.929C6.04 24.182 5 21.671 5 19s1.04-5.182 2.929-7.071c1.814-1.814 4.201-2.844 6.754-2.923l-.677 9.813c-.058.822.389 1.181.995 1.181s1.053-.36.995-1.181l-.677-9.813c2.552.079 4.94 1.11 6.754 2.923 1.889 1.889 2.929 4.4 2.929 7.071s-1.04 5.182-2.929 7.071z"/>
    </symbol>
    <symbol id="icon-user-tie" viewBox="0 0 32 32">
      <path d="M10 6c0-3.314 2.686-6 6-6s6 2.686 6 6-2.686 6-6 6-6-2.686-6-6zm14.002 8h-1.107l-6.222 12.633L19 15l-3-3-3 3 2.327 11.633L9.105 14H7.998C4 14 4 16.687 4 20v10h24V20c0-3.313 0-6-3.998-6z"/>
    </symbol>
    <symbol id="icon-tree" viewBox="0 0 32 32">
      <path d="M30.5 24H30v-6.5c0-1.93-1.57-3.5-3.5-3.5H18v-4h.5c.825 0 1.5-.675 1.5-1.5v-5c0-.825-.675-1.5-1.5-1.5h-5c-.825 0-1.5.675-1.5 1.5v5c0 .825.675 1.5 1.5 1.5h.5v4H5.5C3.57 14 2 15.57 2 17.5V24h-.5c-.825 0-1.5.675-1.5 1.5v5c0 .825.675 1.5 1.5 1.5h5c.825 0 1.5-.675 1.5-1.5v-5c0-.825-.675-1.5-1.5-1.5H6v-6h8v6h-.5c-.825 0-1.5.675-1.5 1.5v5c0 .825.675 1.5 1.5 1.5h5c.825 0 1.5-.675 1.5-1.5v-5c0-.825-.675-1.5-1.5-1.5H18v-6h8v6h-.5c-.825 0-1.5.675-1.5 1.5v5c0 .825.675 1.5 1.5 1.5h5c.825 0 1.5-.675 1.5-1.5v-5c0-.825-.675-1.5-1.5-1.5zM6 30H2v-4h4v4zm12 0h-4v-4h4v4zM14 8V4h4v4h-4zm16 22h-4v-4h4v4z"/>
    </symbol>
    <symbol id="icon-facebook" viewBox="0 0 32 32">
      <path d="M19 6h5V0h-5c-3.86 0-7 3.14-7 7v3H8v6h4v16h6V16h5l1-6h-6V7c0-.542.458-1 1-1z"/>
    </symbol>
    <symbol id="icon-instagram" viewBox="0 0 32 32">
      <path d="M16 2.881c4.275 0 4.781.019 6.462.094 1.563.069 2.406.331 2.969.55.744.288 1.281.638 1.837 1.194.563.563.906 1.094 1.2 1.838.219.563.481 1.412.55 2.969.075 1.688.094 2.194.094 6.463s-.019 4.781-.094 6.463c-.069 1.563-.331 2.406-.55 2.969-.288.744-.637 1.281-1.194 1.837-.563.563-1.094.906-1.837 1.2-.563.219-1.413.481-2.969.55-1.688.075-2.194.094-6.463.094s-4.781-.019-6.463-.094c-1.563-.069-2.406-.331-2.969-.55-.744-.288-1.281-.637-1.838-1.194-.563-.563-.906-1.094-1.2-1.837-.219-.563-.481-1.413-.55-2.969-.075-1.688-.094-2.194-.094-6.463s.019-4.781.094-6.463c.069-1.563.331-2.406.55-2.969.288-.744.638-1.281 1.194-1.838.563-.563 1.094-.906 1.838-1.2.563-.219 1.412-.481 2.969-.55 1.681-.075 2.188-.094 6.463-.094zM16 0c-4.344 0-4.887.019-6.594.094-1.7.075-2.869.35-3.881.744-1.056.412-1.95.956-2.837 1.85-.894.888-1.438 1.781-1.85 2.831C.444 6.538.169 7.7.094 9.4.019 11.113 0 11.656 0 16s.019 4.887.094 6.594c.075 1.7.35 2.869.744 3.881.413 1.056.956 1.95 1.85 2.837.887.887 1.781 1.438 2.831 1.844 1.019.394 2.181.669 3.881.744 1.706.075 2.25.094 6.594.094s4.888-.019 6.594-.094c1.7-.075 2.869-.35 3.881-.744 1.05-.406 1.944-.956 2.831-1.844s1.438-1.781 1.844-2.831c.394-1.019.669-2.181.744-3.881.075-1.706.094-2.25.094-6.594s-.019-4.887-.094-6.594c-.075-1.7-.35-2.869-.744-3.881-.394-1.063-.938-1.956-1.831-2.844-.887-.887-1.781-1.438-2.831-1.844-1.019-.394-2.181-.669-3.881-.744-1.712-.081-2.256-.1-6.6-.1z"/>
      <path d="M16 7.781c-4.537 0-8.219 3.681-8.219 8.219s3.681 8.219 8.219 8.219 8.219-3.681 8.219-8.219c0-4.537-3.681-8.219-8.219-8.219zm0 13.55c-2.944 0-5.331-2.387-5.331-5.331s2.387-5.331 5.331-5.331c2.944 0 5.331 2.387 5.331 5.331S18.944 21.331 16 21.331zM26.462 7.456c0 1.06-.859 1.919-1.919 1.919s-1.919-.859-1.919-1.919.859-1.919 1.919-1.919 1.919.859 1.919 1.919z"/>
    </symbol>
    <symbol id="icon-twitter" viewBox="0 0 32 32">
      <path d="M32 7.075c-1.175.525-2.444.875-3.769 1.031 1.356-.813 2.394-2.1 2.887-3.631-1.269.75-2.675 1.3-4.169 1.594C25.749 4.794 24.043 4 22.155 4c-3.625 0-6.563 2.938-6.563 6.563 0 .512.056 1.012.169 1.494-5.456-.275-10.294-2.888-13.531-6.862-.563.969-.887 2.1-.887 3.3 0 2.275 1.156 4.287 2.919 5.463-1.075-.031-2.087-.331-2.975-.819v.081c0 3.181 2.263 5.838 5.269 6.437-.55.15-1.131.231-1.731.231-.425 0-.831-.044-1.237-.119.838 2.606 3.263 4.506 6.131 4.563-2.25 1.762-5.075 2.813-8.156 2.813-.531 0-1.05-.031-1.569-.094 2.913 1.869 6.362 2.95 10.069 2.95 12.075 0 18.681-10.006 18.681-18.681 0-.287-.006-.569-.019-.85 1.281-.919 2.394-2.075 3.275-3.394z"/>
    </symbol>
    <symbol id="icon-linkedin" viewBox="0 0 32 32">
      <path d="M29 0H3C1.35 0 0 1.35 0 3v26c0 1.65 1.35 3 3 3h26c1.65 0 3-1.35 3-3V3c0-1.65-1.35-3-3-3zM12 26H8V12h4v14zm-2-16c-1.106 0-2-.894-2-2s.894-2 2-2c1.106 0 2 .894 2 2s-.894 2-2 2zm16 16h-4v-8c0-1.106-.894-2-2-2s-2 .894-2 2v8h-4V12h4v2.481C18.825 13.35 20.087 12 21.5 12c2.488 0 4.5 2.238 4.5 5v9z"/>
    </symbol>
  </defs>
</svg>
